<svg width="20" height="20" viewBox="0 0 20 20" fill="none" xmlns="http://www.w3.org/2000/svg">
<path d="M2.61939 9.31512L2.06064 8.81482L2.06063 8.81484L2.61939 9.31512ZM2.53613 12.515L1.9431 12.9741L1.94311 12.9741L2.53613 12.515ZM7.48507 17.4638L7.94424 16.8708L7.94422 16.8708L7.48507 17.4638ZM10.6849 17.3806L11.1852 17.9394L11.1852 17.9394L10.6849 17.3806ZM17.4975 10.4223L16.9288 9.93341L16.9287 9.93347L17.4975 10.4223ZM17.873 9.54688L17.1261 9.47825L17.1261 9.47828L17.873 9.54688ZM17.1523 2.84779L17.6826 2.31747L17.6826 2.31745L17.1523 2.84779ZM10.4531 2.12701L10.3845 1.38015L10.3845 1.38015L10.4531 2.12701ZM9.57761 2.50249L9.08881 1.93365L9.08875 1.9337L9.57761 2.50249ZM6.53035 11.0698C6.23746 10.7769 5.76259 10.7769 5.46969 11.0698C5.1768 11.3627 5.1768 11.8376 5.46969 12.1305L6.53035 11.0698ZM7.86967 14.5305C8.16257 14.8234 8.63744 14.8234 8.93034 14.5305C9.22323 14.2376 9.22323 13.7627 8.93034 13.4698L7.86967 14.5305ZM16.35 5.60019C16.35 4.52324 15.477 3.65019 14.4 3.65019V5.15019C14.6485 5.15019 14.85 5.35167 14.85 5.60019H16.35ZM14.4 3.65019C13.3231 3.65019 12.45 4.52324 12.45 5.60019H13.95C13.95 5.35167 14.1515 5.15019 14.4 5.15019V3.65019ZM12.45 5.60019C12.45 6.67715 13.3231 7.55019 14.4 7.55019V6.05019C14.1515 6.05019 13.95 5.84872 13.95 5.60019H12.45ZM14.4 7.55019C15.477 7.55019 16.35 6.67715 16.35 5.60019H14.85C14.85 5.84872 14.6485 6.05019 14.4 6.05019V7.55019ZM2.06063 8.81484C1.00495 9.9939 0.995938 11.7508 1.9431 12.9741L3.12916 12.0558C2.60327 11.3766 2.62879 10.429 3.17815 9.81541L2.06063 8.81484ZM1.94311 12.9741C3.44346 14.9119 5.08815 16.5566 7.02592 18.0569L7.94422 16.8708C6.10665 15.4481 4.55192 13.8934 3.12915 12.0558L1.94311 12.9741ZM7.0259 18.0569C8.24923 19.0041 10.0061 18.995 11.1852 17.9394L10.1846 16.8219C9.57103 17.3712 8.62343 17.3967 7.94424 16.8708L7.0259 18.0569ZM11.1852 17.9394C13.6433 15.7384 15.8946 13.438 18.0663 10.9112L16.9287 9.93347C14.799 12.4115 12.5933 14.6651 10.1846 16.8219L11.1852 17.9394ZM18.0663 10.9112C18.3761 10.5508 18.5751 10.1022 18.6198 9.61548L17.1261 9.47828C17.1111 9.64133 17.0443 9.7991 16.9288 9.93341L18.0663 10.9112ZM18.6198 9.61551C18.687 8.88499 18.7912 7.45289 18.7329 6.04905C18.7039 5.34839 18.6335 4.63003 18.4886 3.9988C18.3493 3.39232 18.1165 2.75142 17.6826 2.31747L16.6219 3.37812C16.7499 3.50613 16.9048 3.80405 17.0266 4.33456C17.1428 4.84033 17.2071 5.45715 17.2342 6.11121C17.2884 7.41681 17.191 8.77228 17.1261 9.47825L18.6198 9.61551ZM17.6826 2.31745C17.2486 1.8835 16.6077 1.65077 16.0012 1.51148C15.37 1.3665 14.6516 1.29614 13.951 1.26707C12.5471 1.20883 11.115 1.31303 10.3845 1.38015L10.5218 2.87386C11.2277 2.80899 12.5832 2.71162 13.8888 2.76578C14.5428 2.79291 15.1597 2.85725 15.6654 2.97341C16.196 3.09526 16.4939 3.25011 16.6219 3.37814L17.6826 2.31745ZM10.3845 1.38015C9.89773 1.42489 9.44918 1.62399 9.08881 1.93365L10.0664 3.07132C10.2009 2.95574 10.3588 2.88884 10.5218 2.87386L10.3845 1.38015ZM9.08875 1.9337C6.56204 4.10535 4.2616 6.35671 2.06064 8.81482L3.17814 9.81542C5.3349 7.40667 7.58856 5.20098 10.0665 3.07127L9.08875 1.9337ZM5.46969 12.1305L7.86967 14.5305L8.93034 13.4698L6.53035 11.0698L5.46969 12.1305Z" fill="#186FF3"/>
</svg>
