<svg width="20" height="20" viewBox="0 0 20 20" fill="none" xmlns="http://www.w3.org/2000/svg">
<path d="M12.4 8.47222C11.9858 8.47222 11.65 8.80801 11.65 9.22222C11.65 9.63644 11.9858 9.97222 12.4 9.97222V8.47222ZM12.4 2.25C11.9858 2.25 11.65 2.58579 11.65 3C11.65 3.41421 11.9858 3.75 12.4 3.75V2.25ZM14 10.8056C13.5858 10.8056 13.25 11.1413 13.25 11.5556C13.25 11.9698 13.5858 12.3056 14 12.3056V10.8056ZM15.2 16.25C14.7858 16.25 14.45 16.5858 14.45 17C14.45 17.4142 14.7858 17.75 15.2 17.75V16.25ZM10.05 6.11111C10.05 7.39534 8.97313 8.47222 7.6 8.47222V9.97222C9.76143 9.97222 11.55 8.26333 11.55 6.11111H10.05ZM7.6 8.47222C6.22684 8.47222 5.15 7.39534 5.15 6.11111H3.65C3.65 8.26332 5.43853 9.97222 7.6 9.97222V8.47222ZM5.15 6.11111C5.15 4.82688 6.22684 3.75 7.6 3.75V2.25C5.43853 2.25 3.65 3.9589 3.65 6.11111H5.15ZM7.6 3.75C8.97313 3.75 10.05 4.82689 10.05 6.11111H11.55C11.55 3.9589 9.76143 2.25 7.6 2.25V3.75ZM12.4 9.97222C14.5614 9.97222 16.35 8.26333 16.35 6.11111H14.85C14.85 7.39534 13.7731 8.47222 12.4 8.47222V9.97222ZM16.35 6.11111C16.35 3.9589 14.5614 2.25 12.4 2.25V3.75C13.7731 3.75 14.85 4.82689 14.85 6.11111H16.35ZM9.2 10.8056H6V12.3056H9.2V10.8056ZM6 10.8056C3.39671 10.8056 1.25 12.8627 1.25 15.4444H2.75C2.75 13.7307 4.18502 12.3056 6 12.3056V10.8056ZM1.25 15.4444C1.25 16.7376 2.32219 17.75 3.6 17.75V16.25C3.11049 16.25 2.75 15.8696 2.75 15.4444H1.25ZM3.6 17.75H11.6V16.25H3.6V17.75ZM11.6 17.75C12.8778 17.75 13.95 16.7376 13.95 15.4444H12.45C12.45 15.8696 12.0895 16.25 11.6 16.25V17.75ZM13.95 15.4444C13.95 12.8627 11.8033 10.8056 9.2 10.8056V12.3056C11.015 12.3056 12.45 13.7307 12.45 15.4444H13.95ZM14 12.3056C15.815 12.3056 17.25 13.7307 17.25 15.4444H18.75C18.75 12.8627 16.6033 10.8056 14 10.8056V12.3056ZM17.25 15.4444C17.25 15.8696 16.8895 16.25 16.4 16.25V17.75C17.6778 17.75 18.75 16.7376 18.75 15.4444H17.25ZM16.4 16.25H15.2V17.75H16.4V16.25Z" fill="#186FF3"/>
</svg>
