<svg width="20" height="20" viewBox="0 0 20 20" fill="none" xmlns="http://www.w3.org/2000/svg">
<path d="M12.8607 14.5918C13.1876 14.3374 13.2463 13.8661 12.9918 13.5393C12.7374 13.2124 12.2662 13.1537 11.9393 13.4082L12.8607 14.5918ZM8.06071 13.4082C7.73386 13.1537 7.26263 13.2124 7.00818 13.5393C6.75374 13.8661 6.81245 14.3374 7.1393 14.5918L8.06071 13.4082ZM2.28111 10.9708L1.53981 11.0847L1.53981 11.0847L2.28111 10.9708ZM2.20494 7.3995L2.8948 7.69375L2.89481 7.69374L2.20494 7.3995ZM4.86491 4.91285L4.42547 4.30507L4.42547 4.30507L4.86491 4.91285ZM6.0168 4.08L6.45624 4.68778V4.68778L6.0168 4.08ZM13.9832 4.08L14.4227 3.47223L14.4227 3.47222L13.9832 4.08ZM15.1351 4.91285L14.6956 5.52062L14.6956 5.52063L15.1351 4.91285ZM17.7951 7.3995L17.1052 7.69374L17.1052 7.69375L17.7951 7.3995ZM17.7189 10.9708L16.9776 10.8569V10.8569L17.7189 10.9708ZM17.4781 12.5379L18.2194 12.6519L18.2194 12.6518L17.4781 12.5379ZM2.52194 12.5379L3.26324 12.424L3.26324 12.424L2.52194 12.5379ZM11.9393 13.4082C11.4338 13.8017 10.7564 14.05 10 14.05V15.55C11.084 15.55 12.087 15.1941 12.8607 14.5918L11.9393 13.4082ZM10 14.05C9.24362 14.05 8.56625 13.8017 8.06071 13.4082L7.1393 14.5918C7.91301 15.1941 8.91595 15.55 10 15.55V14.05ZM3.02241 10.8569C2.87884 9.92262 2.78079 9.27834 2.75595 8.76517C2.73197 8.26995 2.78097 7.96063 2.8948 7.69375L1.51507 7.10526C1.28145 7.65298 1.22733 8.21039 1.2577 8.8377C1.2872 9.44707 1.40096 10.1811 1.53981 11.0847L3.02241 10.8569ZM2.89481 7.69374C3.00924 7.42545 3.20246 7.16899 3.58484 6.82972C3.97919 6.47984 4.52141 6.08672 5.30436 5.52062L4.42547 4.30507C3.66673 4.85367 3.05268 5.29658 2.58932 5.7077C2.11399 6.12943 1.74807 6.55895 1.51506 7.10527L2.89481 7.69374ZM5.30436 5.52062L6.45624 4.68778L5.57735 3.47222L4.42547 4.30507L5.30436 5.52062ZM6.45624 4.68778C7.42925 3.98425 8.10825 3.49473 8.6797 3.17406C9.2338 2.86312 9.62132 2.75 10 2.75V1.25C9.27225 1.25 8.62707 1.48355 7.94564 1.86595C7.28156 2.2386 6.52218 2.78908 5.57735 3.47222L6.45624 4.68778ZM10 2.75C10.3787 2.75 10.7662 2.86311 11.3203 3.17406C11.8918 3.49474 12.5708 3.98426 13.5438 4.68778L14.4227 3.47222C13.4778 2.78908 12.7184 2.2386 12.0544 1.86594C11.3729 1.48355 10.7278 1.25 10 1.25V2.75ZM13.5438 4.68777L14.6956 5.52062L15.5745 4.30508L14.4227 3.47223L13.5438 4.68777ZM14.6956 5.52063C15.4786 6.08673 16.0208 6.47984 16.4152 6.82972C16.7975 7.16898 16.9908 7.42544 17.1052 7.69374L18.4849 7.10527C18.2519 6.55896 17.886 6.12944 17.4107 5.7077C16.9473 5.29657 16.3333 4.85367 15.5745 4.30506L14.6956 5.52063ZM17.1052 7.69375C17.219 7.96063 17.268 8.26995 17.2441 8.76517C17.2192 9.27835 17.1212 9.92263 16.9776 10.8569L18.4602 11.0847C18.599 10.1811 18.7128 9.44706 18.7423 8.8377C18.7727 8.21039 18.7185 7.65298 18.4849 7.10526L17.1052 7.69375ZM16.9776 10.8569L16.7368 12.424L18.2194 12.6518L18.4602 11.0847L16.9776 10.8569ZM16.7368 12.424C16.5336 13.7464 16.3907 14.6665 16.1905 15.3572C15.9969 16.0253 15.7735 16.3885 15.4636 16.6463L16.4228 17.7995C17.0473 17.2801 17.3911 16.6035 17.6313 15.7747C17.8649 14.9685 18.0223 13.9346 18.2194 12.6519L16.7368 12.424ZM15.4636 16.6463C15.1507 16.9066 14.7361 17.0702 14.0108 17.1583C13.2667 17.2487 12.2958 17.25 10.9111 17.25V18.75C12.2582 18.75 13.3362 18.7513 14.1916 18.6474C15.0659 18.5412 15.8014 18.3163 16.4228 17.7995L15.4636 16.6463ZM10.9111 17.25H9.08898V18.75H10.9111V17.25ZM9.08898 17.25C7.70423 17.25 6.7333 17.2487 5.98923 17.1583C5.26392 17.0702 4.84935 16.9066 4.5364 16.6463L3.5772 17.7995C4.19859 18.3163 4.93415 18.5412 5.80837 18.6474C6.66383 18.7513 7.74182 18.75 9.08898 18.75V17.25ZM4.5364 16.6463C4.22653 16.3885 4.00309 16.0253 3.8095 15.3572C3.60936 14.6665 3.46647 13.7465 3.26324 12.424L1.78065 12.6518C1.97777 13.9346 2.13515 14.9685 2.36877 15.7747C2.60894 16.6035 2.95274 17.2801 3.5772 17.7995L4.5364 16.6463ZM3.26324 12.424L3.02241 10.8569L1.53981 11.0847L1.78065 12.6518L3.26324 12.424Z" fill="#186FF3"/>
</svg>
