<svg width="20" height="20" viewBox="0 0 20 20" fill="none" xmlns="http://www.w3.org/2000/svg">
<path d="M12.6667 15C12.6012 16.6461 11.2294 18.0439 9.39164 17.9989C8.96409 17.9885 8.43564 17.8395 7.37877 17.5413C4.83521 16.8238 2.62716 15.6181 2.09739 12.9169C2 12.4204 2 11.8617 2 10.7443V9.25574C2 8.13832 2 7.5796 2.09739 7.08308C2.62716 4.38191 4.83521 3.17614 7.37877 2.45869C8.43564 2.16057 8.96409 2.01151 9.39164 2.00106C11.2294 1.9561 12.6012 3.35384 12.6667 5.00001M18 10H8.22222M18 10C18 9.37761 16.2273 8.2147 15.7778 7.77778M18 10C18 10.6224 16.2273 11.7853 15.7778 12.2222" stroke="#186FF3" stroke-width="1.5" stroke-linecap="round"/>
</svg>
