<svg width="20" height="20" viewBox="0 0 20 20" fill="none" xmlns="http://www.w3.org/2000/svg">
<path d="M2 4.91177L7.53041 7.90709C9.56927 9.01135 10.4307 9.01135 12.4696 7.90709L18 4.91177M2.01262 10.6284C2.06491 12.9727 2.09106 14.1447 2.99597 15.0131C3.90086 15.8813 5.16026 15.9115 7.67906 15.972C9.23143 16.0093 10.7685 16.0093 12.3209 15.972C14.8397 15.9115 16.0991 15.8813 17.0041 15.0131C17.9089 14.1447 17.9351 12.9727 17.9873 10.6284C18.0042 9.87463 18.0042 9.12537 17.9873 8.3716C17.9351 6.02736 17.9089 4.85525 17.0041 3.98698C16.0991 3.11871 14.8397 3.08846 12.3209 3.02797C10.7685 2.99068 9.23143 2.99068 7.67905 3.02796C5.16026 3.08845 3.90086 3.11869 2.99596 3.98697C2.09106 4.85524 2.06491 6.02736 2.01261 8.3716C1.99579 9.12537 1.9958 9.87463 2.01262 10.6284Z" stroke="#186FF3" stroke-width="1.5" stroke-linejoin="round"/>
</svg>
