<svg width="20" height="20" viewBox="0 0 20 20" fill="none" xmlns="http://www.w3.org/2000/svg">
<path d="M6.97061 5.5H14.0295M6.97061 10H14.0295M6.97061 14.5H10.5M18 11.8V8.2C18 4.80588 18 3.10883 16.9663 2.05441C15.9325 1 14.2688 1 10.9411 1H10.0589C6.73134 1 5.06757 1 4.03382 2.0544C3.00007 3.10881 3.00006 4.80585 3.00004 8.19994L3 11.7999C2.99997 15.1941 2.99996 16.8911 4.03371 17.9456C5.06745 19 6.73125 19 10.0589 19H10.9411C14.2688 19 15.9325 19 16.9663 17.9456C18 16.8912 18 15.1941 18 11.8Z" stroke="#186FF3" stroke-width="1.5" stroke-linecap="round" stroke-linejoin="round"/>
</svg>
