<svg width="20" height="20" viewBox="0 0 20 20" fill="none" xmlns="http://www.w3.org/2000/svg">
<path d="M16.9999 8.65V8.2C16.9999 4.80588 16.9999 3.10883 16.0352 2.05441C15.0703 1 13.5175 1 10.4117 1H9.58824C6.48257 1 4.92972 1 3.9649 2.0544C3.00007 3.10881 3.00006 4.80585 3.00003 8.19994L3 12.25C2.99998 15.2087 2.99997 16.6881 3.74767 17.6837C3.88457 17.8661 4.03753 18.0332 4.20435 18.1829C5.11546 19 6.46911 19 9.17639 19M6.29412 5.5H13.7059M6.29412 10H11.2353M17 17.2V14.5C17 13.2135 15.8939 11.8 14.5294 11.8C13.1649 11.8 12.0588 13.2135 12.0588 14.5V17.65C12.0588 18.3956 12.6119 19 13.2941 19C13.9763 19 14.5294 18.3956 14.5294 17.65V14.5" stroke="#186FF3" stroke-width="1.5" stroke-linecap="round" stroke-linejoin="round"/>
</svg>
